<?xml version="1.0" encoding="UTF-8"?>
<svg width="54px" height="45px" viewBox="0 0 54 45" version="1.1" xmlns="http://www.w3.org/2000/svg" xmlns:xlink="http://www.w3.org/1999/xlink">
    <title>generali</title>
    <defs>
        <polygon id="path-1" points="0.16930279 0.818699919 52.3242365 0.818699919 52.3242365 43.103281 0.16930279 43.103281"></polygon>
    </defs>
    <g id="Page-1" stroke="none" stroke-width="1" fill="none" fill-rule="evenodd">
        <g id="PrimeNG-Showcase-HD---Landing" transform="translate(-693.000000, -1345.000000)">
            <g id="brands" transform="translate(0.000000, 1195.000000)">
                <g transform="translate(259.000000, 28.000000)" id="generali">
                    <g transform="translate(434.000000, 122.000000)">
                        <g id="g4837-Clipped" transform="translate(26.539110, 22.779876) scale(-1, 1) rotate(-180.000000) translate(-26.539110, -22.779876) translate(0.039110, 0.779876)">
                            <mask id="mask-2" fill="white">
                                <use xlink:href="#path-1"></use>
                            </mask>
                            <g id="path4841"></g>
                            <g id="g4837" mask="url(#mask-2)">
                                <g transform="translate(-1.209306, 0.000000)">
                                    <g id="g4843" transform="translate(8.657202, 0.785807)">
                                        <path d="M2.62791692,4.83722256 L2.63275414,8.4252324 C4.88206264,8.4252324 5.70801839,8.53769782 6.09983342,5.78048096 L6.33685732,5.78048096 L6.33685732,8.84969868 L0.211724252,8.84728007 L0.211724252,8.4252324 L1.2722853,8.4252324 L1.2722853,0.528466565 L0.102886744,0.528466565 L0.102886744,0.112465425 L6.41546219,0.112465425 L6.41546219,3.33889287 L6.09983342,3.33889287 C5.78541395,0.899723397 5.16624946,0.527257259 3.43210517,0.527257259 L2.62791692,0.527257259 L2.62791692,4.36438406 L3.09349959,4.36438406 C3.87229243,4.34503517 4.31489829,3.89033625 4.47331733,2.5516349 L4.75992277,2.5516349 L4.75750416,6.5181574 C4.75266693,6.51090157 4.47573594,6.5181574 4.47573594,6.5181574 C4.47573594,6.49880851 4.42010788,4.81303645 3.05963904,4.83722256 L2.62791692,4.83722256 Z" id="path4845" fill="#FFFFFF" fill-rule="nonzero"></path>
                                    </g>
                                    <g id="g4847" transform="translate(1.317080, 0.627630)">
                                        <path d="M7.46513949,4.83722256 L4.00894396,4.83722256 L4.00894396,4.44540754 L5.19285419,4.44540754 L5.19285419,1.60595789 C4.99331876,0.885211729 3.9303391,0.584094624 3.61350102,0.584094624 C1.40651823,0.584094624 1.56493726,3.81294069 1.56493726,4.67759422 C1.56493726,5.46848011 1.48512309,8.77351242 3.61350102,8.77351242 C5.11304001,8.77351242 5.9027166,7.28001996 6.21834537,5.9389 L6.45778789,5.9389 C6.45778789,6.49155268 6.46746233,9.12058314 6.4614158,9.11453661 C6.46746233,9.13509481 5.43350601,8.37202295 5.42987809,8.38411601 C5.4528549,8.38895323 4.95703959,9.0903505 3.61350102,9.0903505 C1.00865667,9.0903505 0.0533052131,6.49155268 0.0617146489,4.67759422 C0.073863409,3.01842688 0.838144574,0.191070291 3.61350102,0.191070291 C4.48661969,0.191070291 5.10094696,0.634885461 5.42987809,1.13916591 C5.43350601,1.15004966 6.53034623,0.273303075 6.53397414,0.269675158 L6.53397414,4.44540754 L7.46513949,4.44540754 L7.46513949,4.83722256 Z" id="path4849" fill="#FFFFFF" fill-rule="nonzero"></path>
                                    </g>
                                    <g id="g4851" transform="translate(29.298090, 0.421564)">
                                        <path d="M9.67444513,3.62791692 L10.9345416,7.40336913 L12.2780802,3.62791692 L9.67444513,3.62791692 Z M4.7803852,5.13592106 L3.36307899,5.13592106 L3.36307899,8.79407062 L5.17582814,8.79407062 C6.24001711,8.63323297 6.28355211,7.40336913 6.28355211,7.01276341 C6.28355211,6.06587709 5.88810916,5.13592106 4.7803852,5.13592106 M19.8640545,3.70289387 C19.5484257,1.26372439 18.9304705,0.897304785 17.1963262,0.897304785 L17.0899073,0.897304785 L17.0899073,8.79286131 L18.1940034,8.79286131 L18.1940034,9.2185369 L14.5648771,9.2185369 L14.5648771,8.79286131 L15.6689732,8.79286131 L15.6689732,0.897304785 L14.7922266,0.897304785 L11.5682178,9.45435376 L11.0929606,9.45435376 C11.1038444,9.45918872 8.41434865,1.69060929 8.40830212,1.66763248 C8.41434865,1.69060929 8.20513877,1.00130507 7.76253291,0.91544437 C7.35499691,0.89609548 7.38522955,1.10893327 7.38522955,1.18391022 L7.38522955,2.6798213 C7.38522955,3.07284563 7.35499691,3.9653132 6.94746091,4.3740585 C6.48913407,4.83480395 5.70792262,4.86866451 5.72606221,4.88680409 C5.72606221,4.88680409 7.70932346,5.29675871 7.70932346,7.18085689 C7.70932346,8.50141865 6.79025117,9.15807162 5.25443301,9.21611829 L0.897304785,9.21611829 L0.897304785,8.79165201 L2.01107528,8.79165201 L2.01107528,0.89609548 L0.897304785,0.89609548 L0.897304785,0.47646396 L4.47201226,0.47646396 L4.47201226,0.89609548 L3.35703246,0.89609548 L3.35703246,4.69210589 L4.84326909,4.69210589 C7.42271802,4.47926809 4.40066323,0.472838506 7.78067249,0.47646396 L9.91146903,0.47646396 L9.91146903,0.897304785 C9.79295708,0.897304785 9.01174563,0.875537284 8.96337341,1.41851552 C8.93193146,1.81274916 9.47732831,3.22400884 9.47732831,3.22400884 L12.3784525,3.22400884 C12.3772432,3.23005537 13.2805945,0.89609548 13.2890597,0.89609548 L12.2780802,0.89609548 L12.2780802,0.47646396 L20.1796832,0.47646396 L20.1796832,3.70289387 L19.8640545,3.70289387 Z" id="path4853" fill="#FFFFFF" fill-rule="nonzero"></path>
                                    </g>
                                    <g id="g4855" transform="translate(15.013167, 0.750979)">
                                        <path d="M10.8837508,8.46513949 C13.1330593,8.46513949 13.9638522,8.57276769 14.3556673,5.81434152 L14.5926912,5.81434152 L14.5926912,8.88476854 L5.66196901,8.88476854 L5.66196901,8.46513949 L5.895365,8.46513949 C6.21099377,8.46513949 6.95834466,8.44216268 7.00187966,7.7830911 L7.00187966,7.7830911 L7.00187966,2.74633311 L2.82372867,8.88476854 L0.549024761,8.88476854 L0.549024761,8.46513949 L0.926328121,8.46513949 C1.37498051,8.46513949 2.00381945,8.44458129 2.03284278,7.7830911 L2.03284278,1.3290269 C2.03284278,0.69897866 1.08958438,0.460745449 0.695350743,0.460745449 L0.690513521,0.460745449 L0.690513521,0.147531396 L3.76940568,0.147531396 L3.76940568,0.460745449 C3.37517204,0.460745449 2.42586712,0.69897866 2.42586712,1.3290269 L2.43675087,7.01155411 C4.09108098,4.64736158 7.21229884,0.142698066 7.24132218,0.147531396 L7.3973226,0.147531396 L7.3973226,7.7830911 C7.4396483,8.44216268 8.18820849,8.46513949 8.50262796,8.46513949 L9.52811914,8.46513949 L9.52811914,0.562327123 L8.35872059,0.562327123 L8.35872059,0.147531396 L14.6725053,0.147531396 L14.6725053,3.37396274 L14.3556673,3.37396274 C14.0412478,0.933583955 13.4232926,0.562327123 11.687939,0.562327123 L10.8837508,0.562327123 L10.8837508,4.39945392 L11.3493334,4.39945392 C12.1281263,4.38010503 12.5707321,3.92540611 12.7291512,2.58670477 L13.0169659,2.58670477 L13.0145473,6.55322727 C13.0085008,6.54597143 12.7327791,6.55322727 12.7327791,6.55322727 C12.7327791,6.53387838 12.6759417,4.84689701 11.3154729,4.87229243 L10.8837508,4.87229243 L10.8837508,8.46513949 Z" id="path4857" fill="#FFFFFF" fill-rule="nonzero"></path>
                                    </g>
                                    <g id="g4859" transform="translate(49.819885, 0.749649)">
                                        <polygon id="path4861" fill="#FFFFFF" fill-rule="nonzero" points="3.62791692 8.46513949 3.62791692 8.89081507 0.0653025046 8.89081507 0.0653025046 8.46513949 1.18391022 8.46513949 1.18874744 0.573210874 0.0653025046 0.573210874 0.0653025046 0.148744594 3.62791692 0.148744594 3.62791692 0.573210874 2.5093092 0.573210874 2.5093092 8.46513949"></polygon>
                                    </g>
                                    <g id="g4863" transform="translate(0.842886, 12.059196)">
                                        <path d="M39.9070861,4.83722256 C40.013505,5.10931633 40.219087,5.28224704 40.5032738,5.33666579 L43.3862585,5.98001639 L43.1262578,8.55100019 L43.1177926,8.60662825 C43.0464436,8.94402452 42.8323965,9.9695157 41.4924858,10.0795625 C36.3396345,10.4955637 35.1448405,11.2598448 33.8919999,12.0688703 C33.8895813,12.0724982 33.888372,12.0761261 33.8871627,12.079754 L33.8799068,12.0761261 L33.7988834,12.1293356 C32.460182,12.9951984 31.1311551,13.0024542 31.0005501,12.9988263 C29.5409182,12.997617 27.6943085,12.4195689 27.5431453,12.3711967 C27.0981208,12.2405917 26.6809104,12.1075681 26.2782116,11.9781724 C24.6637885,11.4593803 23.2694591,11.0095186 20.9282434,11.0796583 L20.5013585,11.0917513 L20.3913117,10.6793781 C20.3066603,10.3613307 19.6512167,7.77220735 20.2836835,6.1094121 C19.7165192,5.66317832 19.7177285,5.14680481 19.7201471,5.07666508 C19.7431239,4.50829143 19.608891,4.36801197 19.565356,4.32205836 C19.2944715,4.04270876 18.3971667,4.00522028 17.6413507,4.00522028 L17.6316762,4.00522028 L17.3559546,4.00522028 L17.1939076,3.78270804 C16.7283249,3.14056675 15.7209733,2.99061285 15.0764134,3.15507842 C14.7922266,4.01731334 14.7849708,4.67638491 15.0582738,5.06940925 C15.3811584,5.53378261 16.0656254,5.58457345 16.344975,5.58457345 L16.507022,5.58457345 C17.191489,5.58457345 17.7477696,6.14448196 17.7477696,6.83257687 L17.7477696,11.4666361 C17.9569795,11.7883114 18.1238636,12.1595682 18.2701896,12.5767787 C19.4008904,12.7581745 20.2667532,13.7171539 20.2667532,14.8708315 C20.2667532,15.3134373 20.1361482,15.7415315 19.9003336,16.1067418 C20.946383,16.609813 21.8400599,17.6377228 21.8400599,18.9860986 C21.8400599,20.333265 21.1616394,20.9512202 20.5182888,21.3563376 C20.6996847,21.8739204 20.9995925,22.7833183 21.2027558,23.6987626 L22.1073164,26.9397018 C22.5124338,28.210682 23.5693669,29.0305912 24.8028587,29.0305912 L40.7390884,29.0305912 C40.0642959,28.0812863 39.1065258,27.6326339 37.7787082,27.6326339 L28.135705,27.6326339 L27.6314246,26.5539333 L36.274332,26.5539333 C35.5947022,25.4740233 34.600653,24.9649056 33.1893933,24.9649056 L26.9227715,24.9649056 L26.4197003,23.886205 L32.0103203,23.886205 C31.3331092,22.8462022 30.3499437,22.3552241 28.9640794,22.3552241 L25.547791,22.3552241 L25.0447198,21.2765234 L28.6254738,21.2765234 C28.6581251,21.2317791 28.7476137,21.0685229 28.7476137,20.6307542 C28.7476137,19.9390314 28.1647284,19.3742857 27.4488194,19.3742857 C27.2021211,19.3742857 26.9929112,19.431123 26.624073,19.5810769 C26.4656539,19.6487981 26.3072349,19.7153099 26.1488159,19.7818217 L25.3180229,19.0368894 C25.4740233,18.9703776 25.6288144,18.9038658 25.7848149,18.8385633 L25.7848149,18.837354 C26.5043517,18.5265624 26.9046319,18.3633062 27.4488194,18.3633062 C28.107891,18.3633062 28.7028694,18.6366092 29.1237077,19.0719593 C29.738035,19.0332615 30.727247,18.9510287 31.6862264,18.8724238 C32.8314388,18.778098 33.9137674,18.6898187 34.4724666,18.659586 C34.7530255,18.6450744 35.0154448,18.631772 35.2657711,18.619679 C35.7410282,18.5967021 36.1763782,18.5749346 36.610519,18.5434927 C38.7860598,15.0111109 39.9010396,14.5467376 44.1130512,14.0424571 C44.4165869,13.4982696 44.6910993,12.9238494 44.9511,12.344592 L44.9511,5.46848011 L44.9523093,5.42857302 C44.9752861,5.11173494 44.9752861,5.00531605 44.9329604,4.94726938 C44.7866344,4.75619909 44.136028,4.48531462 43.9098878,4.39219809 L40.3593665,3.05349674 C39.8889466,3.69080082 39.7196438,4.35712822 39.9070861,4.83722256 M39.1391771,2.96884535 L32.1191578,2.96884535 L35.1279103,6.14448196 C35.7349817,6.77211159 35.9284706,7.52671831 35.6733071,8.26802267 C35.5269811,8.69611686 35.1303289,9.51481678 34.7167463,10.3552842 C35.910331,9.80021291 37.7206615,9.30197899 41.4042065,9.0044898 C41.8480217,8.96821063 41.9653243,8.81704743 42.0536037,8.41313934 L42.2156506,6.82411173 L40.290436,6.39359892 C39.6446668,6.26662183 39.1379678,5.84215555 38.8997345,5.22782829 C38.6361059,4.55061713 38.7255945,3.7524754 39.1391771,2.96884535 M26.477747,2.96884535 C26.2830488,3.73312651 26.362863,4.34261656 26.711143,4.74168742 C27.043702,5.12261869 27.5552383,5.23871204 27.9168207,5.18671189 L29.9690124,4.80578062 L30.0210125,4.79731548 L30.3064087,4.79731548 L31.7563661,6.35973836 L31.7696685,6.37425003 C32.0175761,6.66327408 32.7709736,7.53639275 32.0018552,8.65137255 L30.0633382,11.8451488 C30.3850135,11.8911024 30.7066888,11.9189164 31.004178,11.9189164 L31.0174804,11.9201257 C31.0271548,11.9189164 31.9994366,11.9334281 33.0406487,11.3275659 C33.1809282,11.0252395 33.3768357,10.627378 33.59572,10.1847721 C34.0020467,9.36002566 34.5087458,8.33332517 34.6502345,7.91853334 C34.6949788,7.78792833 34.8316304,7.39248538 34.3466988,6.89062354 L30.6317119,2.96884535 L26.477747,2.96884535 Z M25.896071,5.45034052 C25.5054653,5.00289744 25.124534,4.22168599 25.3712323,2.96884535 L18.762377,2.96884535 C19.4722394,3.03898508 19.9886129,3.20586925 20.3441488,3.57591678 C20.7770802,4.02577848 20.815778,4.64131505 20.8012663,5.080293 C20.815778,5.11899078 20.887127,5.26773537 21.2112209,5.41406135 L21.7808039,5.67406207 L21.4385704,6.19890071 C20.8738247,7.06718216 21.120523,8.96337341 21.3394073,9.99370182 L21.3901982,9.99370182 C23.6310415,9.99370182 25.080999,10.4592845 26.6095613,10.9514719 C27.0086322,11.0796583 27.4197961,11.2114726 27.8539368,11.3384497 L27.8672392,11.3432869 C27.8757043,11.3457055 28.3231474,11.4871943 28.9314281,11.628683 L31.0864108,8.07816168 L31.1045504,8.04913834 C31.3198068,7.74318402 31.3464115,7.54002067 30.9558058,7.08532175 L29.8758959,5.91955111 L28.1054724,6.24848225 L28.0897514,6.25090086 C27.2904004,6.37425003 26.4293748,6.05983057 25.896071,5.45034052 M14.1706435,5.68494582 C13.7111074,5.02345563 13.6554793,4.11163918 14.0013407,2.96884535 L12.8839423,2.96884535 L12.8839423,11.687939 C13.2842225,11.7484043 13.7147353,11.8632883 14.1162247,12.0458935 C14.0932479,11.6661715 14.0412478,11.3650544 13.9698988,10.9635649 C13.9529685,10.8704484 13.9360382,10.7724946 13.9191079,10.6684944 L13.8114797,10.0396554 L14.4512024,10.0396554 C15.4065539,10.0396554 16.1200442,10.1896093 16.6678596,10.4725868 L16.6678596,6.83257687 C16.6678596,6.73946034 16.5953013,6.66327408 16.507022,6.66327408 L16.344975,6.66327408 C15.3956701,6.66327408 14.6035749,6.30652892 14.1706435,5.68494582 M11.8028231,3.91452236 L6.71406492,5.23871204 L1.62530678,3.91452236 L1.62530678,13.0169659 L6.71406492,14.3375277 L11.8028231,13.0169659 L11.8028231,3.91452236 Z M2.27833183,2.96884535 L6.71406492,4.12373224 L11.149798,2.96884535 L2.27833183,2.96884535 L2.27833183,2.96884535 Z M4.0523832,16.3703705 C4.26522099,16.6944644 4.75136186,16.9750233 5.3596426,16.8698137 L5.82038805,16.7899995 L5.96550473,17.2338147 C6.00420251,17.3523266 6.05620265,17.440606 6.12876099,17.5083271 C6.25815669,17.6304669 6.45164559,17.6885136 6.69713464,17.6812578 C7.34774107,17.6606996 8.16281308,17.20721 8.82430326,16.4973476 C9.06495508,16.2397654 9.27779288,15.941067 9.46765386,15.6375312 C9.50514234,15.5746473 9.54746803,15.5057169 9.58495651,15.4452516 C9.63816596,15.3606002 9.68291027,15.2916698 9.69258471,15.2759489 C9.71677082,15.2348325 10.0432833,14.7426451 10.0203065,14.7112031 C10.2440281,15.0256226 10.4677496,15.3400421 10.6914712,15.6532522 C10.6975177,15.6617174 10.6878433,15.6907407 10.6684944,15.7318571 C10.6189128,15.8394853 10.5004009,16.0257184 10.4290518,16.1369745 C10.4121216,16.1635792 10.3951913,16.1901839 10.378261,16.2167886 C10.3770517,16.2192073 10.3746331,16.2216259 10.3746331,16.2240445 C10.3673773,16.2349282 10.3371446,16.2820911 10.2984468,16.3425564 C10.2234699,16.4598591 10.117051,16.6291619 10.0698881,16.7210691 L11.4775198,18.9727962 C11.8294278,18.8990286 12.1281263,18.8881448 12.2708243,18.8881448 L12.3058942,18.8881448 C14.2915741,18.8881448 16.344975,20.0333572 16.344975,21.951316 L16.344975,21.9972696 C16.3207889,22.5196896 16.2228352,23.0179236 16.1442303,23.4182037 C16.0922302,23.6818324 16.0438579,23.9309493 16.0438579,24.0555078 C16.0438579,24.2647177 16.3389285,24.4981137 16.7621855,24.4981137 L17.4043268,24.4981137 L17.1140934,26.1621182 C18.0174447,26.8272363 18.572516,27.9107742 18.544702,28.9459398 C19.518193,28.1985889 20.2050786,26.9046319 20.3308464,25.5260235 C20.3671256,25.1269526 20.2885207,24.5670441 20.159125,23.9781122 L20.0889853,23.7326232 L20.1010784,23.7289953 C19.8713103,22.7688066 19.5314954,21.7795946 19.3525182,21.3115933 L19.185634,20.8786619 L19.5895421,20.6501031 C20.3151255,20.2401485 20.7601499,19.9402407 20.7601499,18.9860986 C20.7601499,17.891677 19.7745658,17.0524188 18.8228423,16.8746509 L17.5216294,16.6315805 L18.6220976,15.8963226 C18.9752148,15.6617174 19.185634,15.2771582 19.185634,14.8708315 C19.185634,14.1839459 18.6015394,13.6240373 17.8832118,13.6240373 L17.46842,13.6240373 L17.3511173,13.2431061 C16.9472092,11.9273815 16.5082313,11.2840309 15.0981809,11.1473794 C15.1622741,11.5464503 15.2082277,11.9310095 15.2082277,12.475197 C15.2082277,12.6033834 15.197344,12.9613379 15.1912975,13.0762219 L15.1284136,14.3024578 L14.2661786,13.4269205 C13.9735267,13.1294313 13.4547346,12.8936167 12.8839423,12.7811513 L12.8839423,13.8513868 L6.71406492,15.4525075 L4.51917518,14.8829245 C4.0294064,15.3726933 3.93024333,16.1817188 4.0523832,16.3703705 M10.7156573,20.333265 C10.7313783,20.4070327 10.7918435,20.4662887 10.8559367,20.4650794 L11.7846835,20.4348467 C12.9178029,20.4747538 14.0714804,20.9415458 14.2020854,22.1206188 C14.2020854,22.9187605 13.6349211,23.696344 12.8343608,23.696344 C12.4062666,23.696344 11.9249629,23.4012735 11.3844033,23.043319 C11.0324954,22.8087137 10.7531458,22.6248992 10.5427266,22.6248992 C10.4000285,22.6248992 10.2839352,22.7204344 10.2839352,22.7978299 C10.2839352,22.8111323 10.2863538,22.8244347 10.291191,22.837737 L10.8849601,23.6322508 L10.3722145,23.9769029 C10.2621677,24.048252 10.0928649,24.1836942 10.073516,24.2840666 C10.0638415,24.3312295 10.132772,24.4170902 10.1545395,24.4424856 C10.3673773,24.6903933 10.611657,24.9927197 10.857146,25.3651858 C11.0095186,25.5768143 11.0965886,25.6941169 11.3505427,25.6941169 C11.6020783,25.6941169 11.806451,25.4921629 11.806451,25.2454646 C11.806451,25.0822083 11.9866375,24.9528126 12.2091497,24.9528126 C12.431662,24.9528126 12.5320344,25.1112316 12.6698952,25.2454646 C12.6698952,25.2454646 13.1983618,25.7316054 12.9190122,25.9613735 C12.5985462,26.2225835 11.3166822,25.6880704 11.6734274,26.8647248 L11.762916,27.0328183 C11.8995675,27.2142141 12.5126855,27.6677038 13.7788285,27.6677038 C14.018271,27.6677038 14.2722252,27.6507735 14.5310166,27.6193315 L14.7208776,27.5951454 L17.409164,29.2531035 C17.4333501,29.1962661 17.440606,29.156359 17.440606,29.156359 L17.4442339,29.1394287 C17.5845133,28.325566 17.0705584,27.3569122 16.2506492,26.8864923 L15.9229274,26.6990499 L16.1345559,25.4861164 C15.4440423,25.2744879 14.9627387,24.7206259 14.9627387,24.0555078 C14.9627387,23.8257397 15.0159481,23.5548553 15.0836693,23.2114125 C15.1586462,22.8292719 15.2432976,22.3975498 15.2650651,21.9585718 C15.2650651,20.697266 13.523665,19.8616358 12.0507307,19.9100081 L12.0132422,19.9112174 C11.9515676,19.9124267 11.0143558,19.9874036 10.7845877,20.1687995 C10.7386341,20.2014507 10.7035642,20.2764277 10.7156573,20.333265 M12.9431983,28.7536602 C13.1137104,28.9701259 13.3894321,29.2107778 13.7195725,29.4284528 C13.9771546,29.5989649 14.3133416,29.7501281 14.6422727,29.8456632 C15.1634834,29.9956171 15.7620897,30.0052916 16.3812542,29.8867796 L14.4741792,28.7101252 C14.2371553,28.7343113 14.0037593,28.7476137 13.7788285,28.7476137 C13.4559439,28.7476137 13.1584547,28.721009 12.8851516,28.677474 C12.9057098,28.7028694 12.9238494,28.7294741 12.9431983,28.7536602 M42.0003942,29.0305912 L49.1909255,29.0305912 C48.5173423,28.0812863 47.5583629,27.6326339 46.2305453,27.6326339 L40.9229029,27.6326339 C41.3461599,28.0038907 41.7053236,28.4706827 42.0003942,29.0305912 M41.6400211,24.9649056 L36.3323787,24.9649056 C36.8015893,25.3760696 37.192195,25.908164 37.5041958,26.5539333 L44.7261691,26.5539333 C44.0465394,25.4740233 43.0524901,24.9649056 41.6400211,24.9649056 M37.4159165,22.3552241 L32.1082741,22.3552241 C32.5617637,22.7555042 32.942695,23.2670405 33.2498586,23.886205 L40.4621574,23.886205 C39.7849463,22.8474115 38.8017808,22.3552241 37.4159165,22.3552241 M38.6361059,18.3052595 C40.3170408,18.0283285 41.6944399,17.2713032 42.7283962,16.055951 C42.9496991,15.7959503 43.1625369,15.5190193 43.3729561,15.2203208 C40.5443902,15.5915776 39.5600154,16.0027415 37.9782436,18.4044225 C38.1886628,18.3766085 38.4063378,18.3439573 38.6361059,18.3052595 M49.9225555,6.66448339 C50.0265557,6.49759921 50.1148351,6.34038947 50.2006958,6.18922627 C50.3059054,6.0029932 50.4099056,5.82038805 50.5308362,5.63173637 C49.7121363,5.68252721 49.0917625,6.13601682 48.5185516,6.99341452 C49.0470182,7.17843828 49.6867409,7.04783327 49.9225555,6.66448339 M43.1976068,2.96884535 L44.3004935,3.38605579 L44.3162145,3.39210232 C45.8822653,4.04029015 46.1047776,4.44540754 46.0322192,5.48661969 L46.0322192,9.69621263 C47.2233853,6.67052991 48.3492488,4.54336129 50.6590226,4.5445706 C50.9734421,4.5445706 51.309629,4.58326838 51.6700021,4.66429186 L52.5709348,4.86866451 L51.950561,5.5519222 C51.5551181,5.98848153 51.3628385,6.32708711 51.1415355,6.71890214 C51.0508376,6.87973979 50.9565118,7.04662397 50.8428371,7.23043843 C50.3022774,8.10718502 49.0167855,8.4046742 47.9755734,7.93788223 C47.5027349,8.8763034 47.0274778,10.0989114 46.4554762,11.6081248 L46.3309177,11.8959396 C46.2317546,12.1208704 46.1325916,12.3482199 46.0322192,12.5755694 L46.0322192,12.6130578 L46.0152889,12.6130578 C45.6609624,13.4099903 45.2824497,14.2093413 44.8301694,14.9591108 C44.4190055,15.6399499 44.0005857,16.2276724 43.5519333,16.7549297 C42.3474649,18.1698173 40.7523908,19.0489825 38.8126645,19.3694484 C37.4715446,19.5907514 36.5210304,19.6379143 35.3189805,19.6971703 C35.0698636,19.708054 34.8086536,19.7225657 34.5317226,19.7370774 C33.987535,19.76731 32.8628808,19.8580079 31.7745057,19.9487059 C31.0416665,20.0079618 30.2894784,20.0696364 29.6981279,20.1131714 C29.738035,20.2800556 29.7610118,20.451777 29.7610118,20.6307542 C29.7610118,20.8714061 29.7392443,21.0854532 29.6969186,21.2765234 L37.4159165,21.2765234 C39.4052243,21.2765234 40.8455073,22.156898 41.7016957,23.8874143 C43.6801197,23.9055539 45.1107283,24.8028587 45.956033,26.5539333 L46.2305453,26.5539333 C48.2899928,26.5539333 49.7629271,27.4935637 50.6070225,29.3474293 L50.9553025,30.1105011 L24.8028587,30.1105011 C23.0844354,30.1105011 21.6211756,28.9882655 21.0745694,27.2553305 L21.0576391,27.1948652 C20.6126146,28.4344035 19.798752,29.4864994 18.7551212,30.1068732 C17.3051637,30.9703175 15.6556708,31.2593415 14.3411556,30.8820381 C13.9070149,30.7562704 13.4740834,30.5603628 13.1233848,30.3281762 C12.8210584,30.12985 12.3990107,29.809384 12.0906378,29.4163597 C11.7568694,28.9882655 11.4339848,28.4694734 11.1969609,27.9845418 C11.0457977,27.8599834 10.9297044,27.7342156 10.8486809,27.6108664 L10.5354707,27.0231438 L10.5185405,26.9904926 C10.144865,26.1439786 9.68895679,25.5574654 9.33342094,25.1438829 C8.98151299,24.732719 8.96337341,24.3421132 9.01053633,24.0869498 C9.06253647,23.8088095 9.21249037,23.5802507 9.37211872,23.4085293 L9.36244427,23.3928083 C9.25844399,23.2126218 9.20402523,23.0070398 9.20402523,22.7978299 C9.20402523,22.1085257 9.80384083,21.5861057 10.5427266,21.5861057 C11.0796583,21.5861057 11.5186362,21.836432 11.9830096,22.1435956 C12.1716613,22.2693634 12.6711045,22.6007131 12.8343608,22.6188527 C13.041152,22.6188527 13.2298037,22.430201 13.2298037,22.2234098 C13.2298037,21.658664 12.5005924,21.353919 11.9781724,21.3164305 L10.916402,21.2027558 C10.1521209,21.1301975 9.78932916,20.7250801 9.78932916,20.3634977 C9.78932916,19.9994967 9.96346917,19.795124 10.085609,19.6729842 L10.1642139,19.59317 L10.4338891,19.3525182 L9.30681621,17.5385597 C8.50383727,18.2822827 7.56420678,18.7333537 6.7309952,18.7587491 C6.19285419,18.7768887 5.72727151,18.6148417 5.38503802,18.2907478 C5.28587496,18.196422 5.19880495,18.0887938 5.123828,17.9714911 L5.10447911,17.9714911 C4.21443016,17.9714911 3.49852122,17.4950247 3.14782258,16.9593023 C2.76689131,16.3739984 2.90354284,15.3618096 3.3872651,14.5890633 L0.544187538,13.8513868 L0.544187538,0.260000713 L52.6906561,0.260000713 L52.6906561,2.96884535 L43.1976068,2.96884535 L43.1976068,2.96884535 Z" id="path4865" fill="#FFFFFF" fill-rule="nonzero"></path>
                                    </g>
                                    <g id="g4867" transform="translate(7.890719, 22.468899)">
                                        <polygon id="path4869" fill="#FFFFFF" fill-rule="nonzero" points="3.62791692 1.20930564 0.22734946 2.09209876 0.22734946 0.978328263 3.62791692 0.09432584"></polygon>
                                    </g>
                                    <g id="g4871" transform="translate(3.595749, 22.563708)">
                                        <polygon id="path4873" fill="#FFFFFF" fill-rule="nonzero" points="0 0 3.40056746 0.882793118 3.40056746 1.99777292 0 1.1149798"></polygon>
                                    </g>
                                    <g id="g4875" transform="translate(3.595749, 20.323832)">
                                        <polygon id="path4877" fill="#FFFFFF" fill-rule="nonzero" points="0 0 3.40056746 0.881583812 3.40056746 1.99777292 0 1.1149798"></polygon>
                                    </g>
                                    <g id="g4879" transform="translate(7.890719, 20.229628)">
                                        <polygon id="path4881" fill="#FFFFFF" fill-rule="nonzero" points="3.62791692 1.20930564 0.22734946 2.09088945 0.22734946 0.975909652 3.62791692 0.09432584"></polygon>
                                    </g>
                                    <g id="g4883" transform="translate(7.890719, 17.987938)">
                                        <polygon id="path4885" fill="#FFFFFF" fill-rule="nonzero" points="3.62791692 1.20930564 0.22734946 2.09330806 0.22734946 0.978328263 3.62791692 0.0955351456"></polygon>
                                    </g>
                                    <g id="g4887" transform="translate(3.595749, 18.083231)">
                                        <polygon id="path4889" fill="#FFFFFF" fill-rule="nonzero" points="0 0 3.40056746 0.882793118 3.40056746 1.99777292 0 1.1137705"></polygon>
                                    </g>
                                </g>
                            </g>
                        </g>
                    </g>
                </g>
            </g>
        </g>
    </g>
</svg>