<?xml version="1.0" encoding="UTF-8"?>
<svg width="112px" height="18px" viewBox="0 0 112 18" version="1.1" xmlns="http://www.w3.org/2000/svg" xmlns:xlink="http://www.w3.org/1999/xlink">
    <title>siemens</title>
    <g id="Page-1" stroke="none" stroke-width="1" fill="none" fill-rule="evenodd">
        <g id="PrimeNG-Showcase-HD---Landing" transform="translate(-398.000000, -1350.000000)" fill="#FFFFFF">
            <g id="brands" transform="translate(0.000000, 1195.000000)">
                <g transform="translate(259.000000, 28.000000)" id="siemens">
                    <g transform="translate(139.000000, 127.000000)">
                        <path d="M110.64897,0.767562 L110.64897,4.090035 C108.927684,3.440235 107.395182,3.111687 106.053915,3.111687 C105.259449,3.111687 104.626806,3.258804 104.151141,3.543234 C103.675419,3.830115 103.432656,4.18323 103.432656,4.600071 C103.432656,5.154225 103.969653,5.647047 105.051,6.088455 L108.174885,7.608702 C110.700498,8.812656 111.953472,10.411335 111.953472,12.419559 C111.953472,14.089374 111.288966,15.420837 109.947699,16.406538 C108.616236,17.4021 106.823814,17.894922 104.592492,17.894922 C103.562616,17.894922 102.638247,17.850804 101.81682,17.757609 C100.995393,17.669373 100.051359,17.487885 99.004326,17.227965 L99.004326,13.751022 C100.924257,14.400822 102.672561,14.72937 104.24673,14.72937 C106.124994,14.72937 107.059224,14.18502 107.059224,13.086516 C107.059224,12.539715 106.676697,12.098364 105.899445,11.752602 L102.429798,10.274022 C101.149863,9.695358 100.198476,8.994087 99.575637,8.162856 C98.962659,7.324272 98.651211,6.363081 98.651211,5.264577 C98.651211,3.727116 99.29856,2.488848 100.578495,1.547265 C101.868291,0.613035 103.57983,0.144723 105.708153,0.144723 C106.39962,0.144723 107.196537,0.205998 108.079296,0.318801 C108.969351,0.438957 109.825092,0.586074 110.64897,0.767562 L110.64897,0.767562 Z" id="Path"></path>
                        <path d="M12.381654,0.767562 L12.381654,4.090035 C10.660311,3.440235 9.13026,3.111687 7.788993,3.111687 C6.992076,3.111687 6.361941,3.258804 5.886219,3.543234 C5.410554,3.830115 5.167791,4.18323 5.167791,4.600071 C5.167791,5.154225 5.712141,5.647047 6.793488,6.088455 L9.917373,7.608702 C12.433125,8.812656 13.688607,10.411335 13.688607,12.419559 C13.688607,14.089374 13.02165,15.420837 11.690187,16.406538 C10.34892,17.4021 8.566302,17.894922 6.327627,17.894922 C5.297751,17.894922 4.370874,17.850804 3.549447,17.757609 C2.72802,17.669373 1.79379,17.487885 0.739461,17.227965 L0.739461,13.751022 C2.666745,14.400822 4.415049,14.72937 5.979414,14.72937 C7.857678,14.72937 8.791908,14.18502 8.791908,13.086516 C8.791908,12.539715 8.411832,12.098364 7.641876,11.752602 L4.172286,10.274022 C2.88249,9.695358 1.931103,8.994087 1.318125,8.162856 C0.695286,7.324272 0.391248,6.363081 0.391248,5.264577 C0.391248,3.727116 1.033695,2.488848 2.320983,1.547265 C3.600975,0.613035 5.314908,0.144723 7.443288,0.144723 C8.142108,0.144723 8.929221,0.205998 9.821727,0.318801 C10.704486,0.438957 11.560227,0.586074 12.381654,0.767562 Z" id="Path"></path>
                        <polygon id="Path" points="15.961596 0.456114 21.049587 0.456114 21.049587 17.583531 15.961596 17.583531"></polygon>
                        <polygon id="Path" points="37.441362 0.456114 37.441362 3.621723 29.881737 3.621723 29.881737 7.419861 36.438504 7.419861 36.438504 10.274022 29.881737 10.274022 29.881737 14.261058 37.595832 14.261058 37.595832 17.583531 24.985095 17.583531 24.985095 0.456114"></polygon>
                        <polygon id="Path" points="61.19406 0.456114 61.19406 17.583531 56.44425 17.583531 56.44425 6.287043 51.515973 17.740452 48.58338 17.740452 43.843602 6.287043 43.843602 17.583531 40.408326 17.583531 40.408326 0.456114 46.619274 0.456114 50.85882 10.940979 55.29456 0.456114"></polygon>
                        <polygon id="Path" points="77.57871 0.456114 77.57871 3.621723 70.06041 3.621723 70.06041 7.419861 76.61712 7.419861 76.61712 10.274022 70.06041 10.274022 70.06041 14.261058 77.73318 14.261058 77.73318 17.583531 65.1225 17.583531 65.1225 0.456114"></polygon>
                        <polygon id="Path" points="95.43168 0.456114 95.43168 17.583531 90.03492 17.583531 83.97867 6.598434 83.97867 17.583531 80.54556 17.583531 80.54556 0.456114 86.09964 0.456114 91.99914 11.252427 91.99914 0.456114"></polygon>
                    </g>
                </g>
            </g>
        </g>
    </g>
</svg>