<?xml version="1.0" encoding="UTF-8"?>
<svg width="118px" height="16px" viewBox="0 0 118 16" version="1.1" xmlns="http://www.w3.org/2000/svg" xmlns:xlink="http://www.w3.org/1999/xlink">
    <title>volvo</title>
    <g id="Page-1" stroke="none" stroke-width="1" fill="none" fill-rule="evenodd">
        <g id="PrimeNG-Showcase-HD---Landing" transform="translate(-260.000000, -1350.000000)" fill="#FFFFFF">
            <g id="brands" transform="translate(0.000000, 1195.000000)">
                <g transform="translate(259.000000, 28.000000)" id="volvo">
                    <g transform="translate(1.000000, 127.000000)">
                        <polygon id="polygon12" points="0 1 0 3.13681757 3.48386207 3.13681757 10.3016692 16 18.6913512 16 25.5091583 3.11545963 28.9924387 3.09337026 29 1 18.5776411 1 18.5776411 3.10068462 21.3532143 3.10068462 16.5388569 12.245392 11.3321851 3.13257524 15.1298405 3.11545963 15.1231517 1"></polygon>
                        <polygon id="polygon14" points="69 1 69 3.13681757 72.4830188 3.13681757 79.3013133 16 87.6917067 16 94.5098557 3.11545963 97.9937471 3.09337026 98 1 87.5790089 1 87.5790089 3.10068462 90.3535579 3.10068462 85.5391045 12.245392 80.33159 3.13257524 84.1305992 3.11545963 84.1234738 1"></polygon>
                        <path d="M51.1826289,1 L51.1826289,3.13692218 L54.6547514,3.13692218 L54.6605491,13.638385 L51,13.638385 L51,15.9790813 L54.6630132,16 L72,16 L72,9.01784669 L69.7416347,9.01784669 C69.6178529,12.7145992 66.4404006,13.6433587 65.1019919,13.6433587 C63.8756246,13.6433587 61.4994202,13.6385313 61.4994202,13.6385313 L61.4994202,3.13267993 L64.9193631,3.11541837 L64.9147249,1 L51.1826289,1 L51.1826289,1 Z" id="path16"></path>
                        <path d="M39.349471,13.6454118 C37.3051539,13.6454118 35.6487658,11.1048029 35.6487658,7.96919355 C35.6487658,4.83284544 37.3051539,2.29031573 39.349471,2.29031573 C41.3932185,2.29031573 43.0501763,4.83284544 43.0501763,7.96919355 C43.0501763,11.1048029 41.3932185,13.6454118 39.349471,13.6454118 L39.349471,13.6454118 Z M39.4998576,0 C33.7008613,0 29,3.58256148 29,8.00007388 C29,12.4178818 33.7007188,16 39.4998576,16 C45.2984267,16 50,12.4178818 50,8.00007388 C50,3.58256148 45.2984267,0 39.4998576,0 L39.4998576,0 Z" id="path18"></path>
                        <path d="M107.349178,13.6457247 C105.305462,13.6457247 103.649126,11.1043344 103.649126,7.96786915 C103.649126,4.83256701 105.305605,2.29059518 107.349178,2.29059518 C109.393179,2.29059518 111.04923,4.83256701 111.04923,7.96786915 C111.049372,11.104189 109.393179,13.6457247 107.349178,13.6457247 L107.349178,13.6457247 Z M107.500285,0 C101.699692,0 97,3.58266243 97,8.00043617 C97,12.4180645 101.69955,16 107.500285,16 C113.298741,16 118,12.4180645 118,8.00043617 C118,3.58266243 113.298741,0 107.500285,0 L107.500285,0 Z" id="path20"></path>
                    </g>
                </g>
            </g>
        </g>
    </g>
</svg>