<svg width="572" height="292" viewBox="0 0 572 292" fill="none" xmlns="http://www.w3.org/2000/svg">
<g filter="url(#filter0_d)">
<rect x="6" y="2" width="560" height="280" rx="20" fill="white"/>
</g>
<mask id="mask0" mask-type="alpha" maskUnits="userSpaceOnUse" x="6" y="2" width="560" height="280">
<rect x="6" y="2" width="560" height="280" rx="20" fill="white"/>
</mask>
<g mask="url(#mask0)">
<g opacity="0.1" filter="url(#filter1_d)">
<path d="M356 2H566V282H216L356 2Z" fill="#253138"/>
</g>
</g>
<mask id="mask1" mask-type="alpha" maskUnits="userSpaceOnUse" x="216" y="2" width="350" height="280">
<path d="M356 2H566V282H216L356 2Z" fill="black"/>
</mask>
<g mask="url(#mask1)">
<path opacity="0.3" d="M234 244.5H318.5C324.023 244.5 328.5 240.023 328.5 234.5V226C328.5 220.477 332.977 216 338.5 216H391.5C397.023 216 401.5 220.477 401.5 226V283" stroke="#253138" stroke-width="3"/>
<path opacity="0.3" d="M333 44.5H410.5C416.023 44.5 420.5 48.9772 420.5 54.5V67.5C420.5 73.0228 424.977 77.5 430.5 77.5H497.5C503.023 77.5 507.5 81.9772 507.5 87.5V151" stroke="#253138" stroke-width="3"/>
<path d="M344.5 109H453.5C459.023 109 463.5 104.523 463.5 99V77" stroke="#253138" stroke-width="3"/>
<path d="M366.5 215V158C366.5 152.477 370.977 148 376.5 148H507" stroke="#253138" stroke-width="3"/>
<path opacity="0.3" d="M470.5 281V227C470.5 221.477 474.977 217 480.5 217H565" stroke="#253138" stroke-width="3"/>
<circle cx="507.5" cy="148.5" r="6.5" fill="#253138"/>
<circle cx="527.5" cy="217.5" r="6.5" fill="#AFB3B6"/>
<circle cx="366.5" cy="217.5" r="6.5" fill="#253138"/>
<circle cx="463.5" cy="76.5" r="6.5" fill="#253138"/>
<path d="M317.2 136.176L307.12 133.937L314.96 145.133V179.841L341.84 157.449V119.382L329.52 123.861L317.2 136.176Z" fill="#253138"/>
<path d="M254.48 136.176L264.56 133.937L256.72 145.133V179.841L229.84 157.449V119.382L242.16 123.861L254.48 136.176Z" fill="#253138"/>
<path fill-rule="evenodd" clip-rule="evenodd" d="M260.08 147.372L269.04 133.937L274.64 137.296H297.04L302.64 133.937L311.6 147.372V197.755L304.88 207.831L297.04 215.668H274.64L266.8 207.831L260.08 197.755V147.372Z" fill="#253138"/>
<path d="M314.96 201.113L329.52 186.559V172.004L314.96 184.319V201.113Z" fill="#253138"/>
<path d="M256.72 201.113L242.16 186.559V172.004L256.72 184.319V201.113Z" fill="#253138"/>
<path fill-rule="evenodd" clip-rule="evenodd" d="M288.08 132.817V69L300.4 69L309.36 90.2725L295.92 132.818H276.88L262.32 90.2725L271.28 69L283.6 69V132.817H288.08Z" fill="#253138"/>
<path d="M276.88 132.818L228.72 114.904L222 86.9137L263.44 90.2725L278 132.818H276.88Z" fill="#253138"/>
<path d="M295.92 132.818L344.08 114.904L350.8 86.9137L308.24 90.2725L294.8 132.818H295.92Z" fill="#253138"/>
<path d="M311.6 86.9137L335.12 84.6745L319.44 69H303.76L311.6 86.9137Z" fill="#253138"/>
<path d="M260.08 86.9137L236.56 84.6745L252.24 69H267.92L260.08 86.9137Z" fill="#253138"/>
</g>
<mask id="mask2" mask-type="alpha" maskUnits="userSpaceOnUse" x="6" y="2" width="350" height="280">
<path d="M6 22C6 10.9543 14.9543 2 26 2H356L216 282H26C14.9543 282 6 273.046 6 262V22Z" fill="#F8F9FA" fill-opacity="0.3"/>
</mask>
<g mask="url(#mask2)">
<path d="M317.2 136.176L307.12 133.937L314.96 145.133V179.841L341.84 157.449V119.382L329.52 123.861L317.2 136.176Z" fill="#253138"/>
<path d="M254.48 136.176L264.56 133.937L256.72 145.133V179.841L229.84 157.449V119.382L242.16 123.861L254.48 136.176Z" fill="#253138"/>
<path fill-rule="evenodd" clip-rule="evenodd" d="M260.08 147.372L269.04 133.937L274.64 137.296H297.04L302.64 133.937L311.6 147.372V197.755L304.88 207.831L297.04 215.668H274.64L266.8 207.831L260.08 197.755V147.372Z" fill="#253138"/>
<path d="M314.96 201.113L329.52 186.559V172.004L314.96 184.319V201.113Z" fill="#253138"/>
<path d="M256.72 201.113L242.16 186.559V172.004L256.72 184.319V201.113Z" fill="#253138"/>
<path fill-rule="evenodd" clip-rule="evenodd" d="M288.08 132.817V69L300.4 69L309.36 90.2725L295.92 132.818H276.88L262.32 90.2725L271.28 69L283.6 69V132.817H288.08Z" fill="#253138"/>
<path d="M276.88 132.818L228.72 114.904L222 86.9137L263.44 90.2725L278 132.818H276.88Z" fill="#253138"/>
<path d="M295.92 132.818L344.08 114.904L350.8 86.9137L308.24 90.2725L294.8 132.818H295.92Z" fill="#253138"/>
<path d="M311.6 86.9137L335.12 84.6745L319.44 69H303.76L311.6 86.9137Z" fill="#253138"/>
<path d="M260.08 86.9137L236.56 84.6745L252.24 69H267.92L260.08 86.9137Z" fill="#253138"/>
</g>
<circle cx="39" cy="35" r="12" fill="#9AD348"/>
<circle cx="70" cy="35" r="12" fill="#FFD338"/>
<circle cx="101" cy="35" r="12" fill="#FF8165"/>
<defs>
<filter id="filter0_d" x="0" y="0" width="572" height="292" filterUnits="userSpaceOnUse" color-interpolation-filters="sRGB">
<feFlood flood-opacity="0" result="BackgroundImageFix"/>
<feColorMatrix in="SourceAlpha" type="matrix" values="0 0 0 0 0 0 0 0 0 0 0 0 0 0 0 0 0 0 127 0"/>
<feOffset dy="4"/>
<feGaussianBlur stdDeviation="3"/>
<feColorMatrix type="matrix" values="0 0 0 0 0 0 0 0 0 0 0 0 0 0 0 0 0 0 0.09 0"/>
<feBlend mode="normal" in2="BackgroundImageFix" result="effect1_dropShadow"/>
<feBlend mode="normal" in="SourceGraphic" in2="effect1_dropShadow" result="shape"/>
</filter>
<filter id="filter1_d" x="210" y="0" width="362" height="292" filterUnits="userSpaceOnUse" color-interpolation-filters="sRGB">
<feFlood flood-opacity="0" result="BackgroundImageFix"/>
<feColorMatrix in="SourceAlpha" type="matrix" values="0 0 0 0 0 0 0 0 0 0 0 0 0 0 0 0 0 0 127 0"/>
<feOffset dy="4"/>
<feGaussianBlur stdDeviation="3"/>
<feColorMatrix type="matrix" values="0 0 0 0 0 0 0 0 0 0 0 0 0 0 0 0 0 0 0.09 0"/>
<feBlend mode="normal" in2="BackgroundImageFix" result="effect1_dropShadow"/>
<feBlend mode="normal" in="SourceGraphic" in2="effect1_dropShadow" result="shape"/>
</filter>
</defs>
</svg>
