<?xml version="1.0" encoding="UTF-8"?>
<svg width="40px" height="40px" viewBox="0 0 40 40" version="1.1" xmlns="http://www.w3.org/2000/svg" xmlns:xlink="http://www.w3.org/1999/xlink">
    <title>icon-rain</title>
    <g id="Dashboard" stroke="none" stroke-width="1" fill="none" fill-rule="evenodd">
        <g id="Dashboard-/-Default-/-Purple" transform="translate(-14.000000, -10.000000)">
            <g id="icon-rain" transform="translate(16.000000, 12.000000)">
                <circle id="border-outer" stroke="#2C84D8" stroke-width="1.13999999" cx="18.2399998" cy="18.2399998" r="18.8099998"></circle>
                <path d="M18.2399998,-1.21502806e-14 C28.3136735,-1.21502806e-14 36.4799995,8.16632606 36.4799995,18.2399998 C36.4799995,24.3368508 33.4886847,29.7350428 28.8936304,33.0470005 C28.3240051,32.939737 27.7907404,32.8401088 27.2931712,32.7474612 C32.1264115,29.7267162 35.3399996,24.3586448 35.3399996,18.2399998 C35.3399996,8.79593067 27.6840689,1.13999999 18.2399998,1.13999999 C8.79593067,1.13999999 1.13999999,8.79593067 1.13999999,18.2399998 C1.13999999,24.0064146 3.99424627,29.1061845 8.36702044,32.203591 C7.86388299,32.2973767 7.40223752,32.4265675 6.98219339,32.5909669 C2.73083194,29.2528794 0,24.0653496 0,18.2399998 C0,8.16632606 8.16632606,-1.21502806e-14 18.2399998,-1.21502806e-14 Z M18.2399998,2.27999997 C27.0544643,2.27999997 34.1999996,9.42553527 34.1999996,18.2399998 C34.1999996,24.4163365 30.691634,29.7732506 25.5590579,32.4265871 C24.2460495,32.1844929 23.3069133,32.0158707 22.7397884,31.9199996 C21.053873,31.6349996 17.682042,32.7749996 13.2986618,32.2049996 C12.1587408,32.0567681 11.1214344,31.9953831 10.1867428,32.0208445 C5.4568357,29.2525577 2.27999997,24.1172736 2.27999997,18.2399998 C2.27999997,9.42553527 9.42553527,2.27999997 18.2399998,2.27999997 Z M18.0974998,25.6499997 C18.0974998,25.6499997 16.5299998,27.9185996 16.5299998,28.7849996 C16.5299998,29.6519696 17.2310998,30.3524996 18.0974998,30.3524996 C18.9638998,30.3524996 19.6649998,29.6519696 19.6649998,28.7849996 C19.6649998,27.9185996 18.0974998,25.6499997 18.0974998,25.6499997 Z M23.7974997,22.2299997 C23.7974997,22.2299997 22.2299997,24.4985997 22.2299997,25.3649997 C22.2299997,26.2319697 22.9310997,26.9324997 23.7974997,26.9324997 C24.6638997,26.9324997 25.3649997,26.2319697 25.3649997,25.3649997 C25.3649997,24.4985997 23.7974997,22.2299997 23.7974997,22.2299997 Z M12.3974998,21.6599997 C12.3974998,21.6599997 10.8299999,23.9285997 10.8299999,24.7949997 C10.8299999,25.6619697 11.5310999,26.3624997 12.3974998,26.3624997 C13.2638998,26.3624997 13.9649998,25.6619697 13.9649998,24.7949997 C13.9649998,23.9285997 12.3974998,21.6599997 12.3974998,21.6599997 Z M15.3899998,6.77159957 C12.2062366,6.77159957 9.53052093,8.94680965 8.76792796,11.8921547 C7.28617634,12.6438179 6.26999992,14.1832385 6.26999992,15.9599998 C6.26999992,18.4784182 8.31158144,20.5199997 10.8299999,20.5199997 L10.8299999,20.5199997 L25.6499997,20.5199997 C28.1684181,20.5199997 30.2099996,18.4784182 30.2099996,15.9599998 C30.2099996,13.6317477 28.4650979,11.7110392 26.2116684,11.4342482 C25.8328808,9.83295173 24.3929143,8.64119987 22.6745993,8.64119987 C21.9295334,8.64119987 21.2368001,8.86526264 20.6601058,9.24968185 C19.4050464,7.73623437 17.5101744,6.77159957 15.3899998,6.77159957 Z" id="body" fill="#2C84D8"></path>
            </g>
        </g>
    </g>
</svg>